<?xml version="1.0" encoding="utf-8"?>
<!-- Generator: Adobe Illustrator 19.2.1, SVG Export Plug-In . SVG Version: 6.00 Build 0)  -->
<svg version="1.1" id="Layer_1" xmlns="http://www.w3.org/2000/svg" xmlns:xlink="http://www.w3.org/1999/xlink" x="0px" y="0px"
	 viewBox="0 0 80 66" style="enable-background:new 0 0 80 66;" xml:space="preserve">
<style type="text/css">
	.st0{opacity:0.79;fill:#302C23;}
</style>
<path class="st0" d="M16.5,15h6v36h-6V15 M25.5,15h3v36h-3V15 M31.5,15h9v36h-9V15 M43.5,15h3v36h-3V15 M52.5,15h6v36h-6V15
	 M61.5,15h3v36h-3V15 M10.5,9v12h-6V9c0-3.3,2.7-6,6-6h12v6H10.5 M70.5,3c3.3,0,6,2.7,6,6v12h-6V9h-12V3H70.5 M10.5,45v12h12v6h-12
	c-3.3,0-6-2.7-6-6V45H10.5 M70.5,57V45h6v12c0,3.3-2.7,6-6,6h-12v-6H70.5z"/>
</svg>
